<svg class="svg-icon" style="width: 1em; height: 1em;vertical-align: middle;fill: currentColor;overflow: hidden;" viewBox="0 0 1024 1024" version="1.1" xmlns="http://www.w3.org/2000/svg"><path d="M480.73 473.51c-8.251 0-14.943-6.693-14.943-14.949 0-57.684 46.93-104.614 104.614-104.614 8.255 0 14.948 6.691 14.948 14.943 0 8.256-6.693 14.949-14.948 14.949-41.198 0-74.723 33.52-74.723 74.722 0.001 8.256-6.692 14.949-14.948 14.949z m373.632-18.197h-29.888c0-6.557-5.607-23.684-15.375-32.127-6.584-5.781-14.558-8.616-23.163-9.819-6.016-0.818-11.165-0.099-15.71 0.974-7.364 1.585-14.026 3.483-19.561 8.23-10.112 8.539-15.862 26.187-15.862 32.743h-29.892c0-21.854 9.615-41.16 26.379-55.307 9.21-7.896 20.432-12.66 32.353-15.224 7.662-1.814 16.549-1.95 26.379-0.616 14.448 2.018 27.812 6.718 38.706 16.272 16.257 14.048 25.634 33.016 25.634 54.874z m0 0"  /><path d="M622.711 459.316h-29.888c0-6.557-10.059-22.417-22.417-22.417-12.363 0-22.418 15.86-22.418 22.417h-29.892c0-21.858 23.47-52.309 52.31-52.309 28.834 0.005 52.305 30.451 52.305 52.309z m215.268-112.947a14.89 14.89 0 0 1-8.359-2.57c-6.833-4.624-8.627-13.917-4.004-20.75l113.518-167.765c4.622-6.833 13.915-8.621 20.75-3.998 6.833 4.623 8.625 13.916 4.002 20.75l-113.512 167.76a14.939 14.939 0 0 1-12.395 6.573z m-544.064 84.53H129.517c-8.251 0-14.943-7.046-14.943-15.297 0-8.256 6.691-15.303 14.943-15.303h164.398c8.255 0 14.949 7.047 14.949 15.303-0.001 8.251-6.694 15.297-14.949 15.297z m194.294-72.949a14.9 14.9 0 0 1-10.873-4.686l-127.03-134.506c-5.671-5.999-5.4-15.459 0.604-21.125 5.999-5.671 15.465-5.405 21.125 0.605l127.037 134.507c5.666 5.999 5.395 15.459-0.609 21.125a14.885 14.885 0 0 1-10.254 4.08z m0 0M634.121 782.285V755.6c150.194 0 259.207-96.107 259.207-228.519h26.688c0 38.067-7.723 73.79-22.952 106.178-14.51 30.854-35.476 58.002-62.313 80.685-52.146 44.071-123.397 68.341-200.63 68.341z m-362.624-2.746H151.935c-14.782 0-26.975-11.242-27.759-25.593l-5.826-105.469c-0.408-7.481 2.319-14.894 7.481-20.345 4.968-5.245 11.586-8.135 18.635-8.135H275.48l2.535 8.621c5.606 19.06 12.799 36.232 23.324 55.679l1.619 2.991-3.702 66.069c-0.788 14.429-13.241 26.182-27.759 26.182zM144.465 644.016c-0.493 0-0.922 0.346-1.195 0.633-0.627 0.662-0.987 1.625-0.938 2.514l5.826 105.466c0.098 1.814 1.998 2.894 3.777 2.894h119.562c1.877 0 3.677-1.662 3.776-3.489l3.324-59.321c-8.94-16.851-15.588-32.28-20.952-48.695h-113.18z"  /><path d="M951.507 444.02h-12.175c2.934-6.562 2.183-23.112-2.769-35.052-9.595-23.293-32.212-36.673-55.989-36.136 0.136-8.022-1.371-15.616-4.515-23.258-6.087-14.771-17.575-26.055-32.294-32.164-14.761-6.166-31.013-6.094-45.773-0.01a59.501 59.501 0 0 0-20.067 13.609c-16.554-17.019-42.475-23.215-65.772-13.655-14.772 6.082-26.275 17.58-32.404 32.335-0.052 0.131-0.089 0.277-0.141 0.408-28.276-27.463-66.769-46.264-109.201-46.264-81.489 0-148.616 65.865-156.167 140.188h-32.743l2.059-27.026 0.036-32.014c0-24.721-20.114-45.888-44.84-45.888H84.68c-24.72 0-48.405 24.023-48.405 48.745v29.891L65.854 806.08c1.725 24.096 24.56 42.329 48.719 42.329h194.29c24.154 0 45.205-18.233 46.925-42.329l4.936-68.368c64.2 70.256 159.926 113.09 275.069 113.09 207.837 0 356.817-137.937 356.817-328.453v-29.893c0-24.721-16.377-48.436-41.103-48.436z m-244.145-82.698c3.059-7.366 8.798-12.927 16.157-15.955 15.282-6.265 32.816-0.246 38.962 14.667 2.476 6.401 8.501 9.663 15.359 9.663h0.037c6.843 0 12.88-3.215 15.245-9.277 3.097-7.39 8.866-13.03 16.252-16.074 7.371-3.038 15.491-2.622 22.893 0.48 7.375 3.06 13.114 9.007 16.147 16.382 3.038 7.366 3.018 15.574-0.198 23.251-2.398 6.135-0.954 13.15 3.68 17.8 4.639 4.644 11.598 6.139 18.023 3.632 15.215-6.254 32.732-0.782 39.014 14.48 3.481 8.387 2.872 17.086-1.313 23.648H726.568c-2.043-13.121-8.401-39.978-18.268-58.091-0.173-1.23-0.443-1.564-0.944-2.768-3.048-7.354-3.048-14.473 0.006-21.838z m-136.961-29.397c64.985 0 118.645 53.07 126.077 112.094h-252.15c7.433-59.023 61.093-112.094 126.073-112.094zM325.974 804.688c-0.62 8.637-8.454 15.303-17.111 15.303h-194.29c-8.659 0-17.926-6.666-18.545-15.303l-29.151-387.49v-29.36c0-8.241 9.56-18.14 17.803-18.14h254.07c8.239 0 12.294 9.898 12.294 18.14v29.36l0.475 26.822h-27.713c-24.726 0-47.082 23.709-47.082 48.436v29.893c0 68.525 20.723 129.92 55.39 180.926l-6.14 101.413z m636.036-282.34c0 173.195-136.06 298.2-326.576 298.2-73.945 0-137.737-15.854-190.917-53.018H572.92v-30.6H404.481c-24.202-15.304-44.414-45.904-59.947-74.321h154.062v-30.601h-168.3c-9.487-21.861-15.981-45.909-19.14-74.327H418.81v-30.6H309.045c-0.057 0-3.904-2.222-3.904-4.733v-29.893c0-8.238 10.424-17.835 18.665-17.835h627.701c8.241 0 10.503 9.597 10.503 17.835v29.893z m0 0"  /></svg>